<?xml version="1.0" encoding="UTF-8" standalone="no"?>
<svg
   viewBox="0 0 80 80"
   height="80"
   width="80"
   xml:space="preserve"
   id="svg2"
   version="1.1"
   xmlns:sodipodi="http://sodipodi.sourceforge.net/DTD/sodipodi-0.dtd"
   xmlns="http://www.w3.org/2000/svg"
   xmlns:svg="http://www.w3.org/2000/svg"
   xmlns:rdf="http://www.w3.org/1999/02/22-rdf-syntax-ns#"
   xmlns:cc="http://creativecommons.org/ns#"
   xmlns:dc="http://purl.org/dc/elements/1.1/"><sodipodi:namedview
     id="namedview8" /><metadata
     id="metadata8"><rdf:RDF><cc:Work
         rdf:about=""><dc:format>image/svg+xml</dc:format><dc:type
           rdf:resource="http://purl.org/dc/dcmitype/StillImage" /></cc:Work></rdf:RDF></metadata><defs
     id="defs6"><style
       id="style9288">
      .cls-1 {
        fill: #009d3f;
        fill-rule: evenodd;
      }
    </style></defs><g
     transform="matrix(1.3333333,0,0,-1.3333333,-8.1746492,88.153912)"
     id="g10"
     style="fill:#009d3f;fill-opacity:1"><g
       transform="scale(0.1)"
       id="g12"
       style="fill:#009d3f;fill-opacity:1"><path
         id="path14"
         style="fill:#009d3f;fill-opacity:1;fill-rule:evenodd;stroke:none"
         d="m 360.73,657.922 c 163.454,0 296.766,-133.317 296.766,-296.77 0,-163.453 -133.312,-296.7653 -296.766,-296.7653 -163.453,0 -296.7691,133.3123 -296.7691,296.7653 0,163.453 133.3161,296.77 296.7691,296.77 z M 174.21895,404.60036 c 4.586,0 10.66069,-4.92384 10.66069,-9.48284 0,-4.562 -6.07469,-7.13416 -10.66069,-7.13416 -4.554,0 -8.277,3.746 -8.277,8.308 0,3.73283 2.49591,6.9233 5.90028,7.95705 0.75348,0.2288 1.55145,0.35195 2.37672,0.35195 z m -11.562,7.043 c 9.49722,-4.63593 24.98147,-3.53786 30.9806,-18.78361 -6.141,-7.918 -20.6096,-10.45139 -27.4376,-6.94339 -7.988,5.965 -0.145,15.317 -3.543,25.727 z m 100.6272,-98.69807 c 0,0 6.19054,0.38121 9.2816,0.62869 10.89385,0.87221 27.72416,-1.90416 32.64701,3.01715 l -22.73825,4.54502 c -3.0853,0.6167 -3.60529,13.19106 -2.23029,16.33206 l 18.81492,-2.05401 c 15.937,-2.71239 30.53738,-4.94137 37.33838,2.99663 l -46.71612,9.59437 c -2.97165,0.61031 -1.50731,15.94259 1.58197,15.44525 l 41.3002,-6.64892 c 15.942,-3.792 26.73691,-3.47015 33.53691,4.60385 l -69.30397,14.22697 c -3.74905,0.76962 -3.42966,15.81517 0.351,15.14015 l 68.19514,-12.17599 c 18.871,-3.656 22.25853,-1.06212 30.30953,8.85588 l -97.68458,15.6019 c -4.03201,0.64398 -6.25278,16.96083 -2.17754,16.36717 l 120.21321,-17.51194 c 20.93,-3.117 29.97369,-4.13231 38.89869,7.26969 l -162.74625,23.14103 c -3.91264,0.55634 -8.42322,15.28689 -4.45138,14.92539 L 493.1093,428.55052 c 20.933,-2.125 31.9369,-2.44939 40.8669,9.32461 l -255.08236,21.972 c -4.43564,0.38207 -12.30528,15.25335 -7.80406,14.95845 l 288.36723,-18.89229 c 20.934,-1.25 36.91809,5.30185 45.84709,17.44585 l -390.49869,13.2624 c -38.824,1.551 -21.37577,-35.41703 -0.85677,-57.86603 18.922,-20.707 33.49768,-40.62594 27.45868,-66.28194 -10.39322,-5.82484 -33.09849,28.10303 -47.30004,42.27193 -18.50786,15.27784 -40.19923,5.12769 -51.74372,-3.66698 21.922,-12.226 21.4691,-48.83558 25.79645,-78.08016 1.74639,-11.80222 20.99532,-44.80945 42.67974,-54.89522 L 531.89646,118.77461 c 28.50169,21.41662 46.00955,38.32678 65.0817,63.04985 -78.726,27.653 -332.14044,113.74094 -334.68702,117.66346 -2.24894,3.46406 -2.70926,13.2066 0.99301,13.45737 z m -42.76683,185.13725 327.77576,-2.87137 c 20.922,-0.379 38.23014,2.07067 47.16014,14.59367 l -346.91965,0.1354 c -20.868,-0.036 -22.04725,-3.4007 -28.01625,-11.8577 z"
         sodipodi:nodetypes="sssssssssssccccsacscccssccssccssccssccsscccccccssccssccccc" /></g></g></svg>
